<svg id="Layer_1" data-name="Layer 1" xmlns="http://www.w3.org/2000/svg" viewBox="0 0 2042.79 118.75"><defs><style>.cls-1{fill:#1e2334;}</style></defs><path class="cls-1" d="M124.31,60h-15l9.95,19.11a37.58,37.58,0,0,1,1.36,9.75c0,17.16-13.84,33.35-40,33.35-9.94,0-19.3-4.29-25.93-6.24l-5.07,4.87H21.16L2.24,101.49l8.78-39H29.54A28.65,28.65,0,0,1,18.23,39.28c0-22.61,16.58-35.87,39-35.87A70.12,70.12,0,0,1,81.61,8.09c.19,0,.58.19.78.19l7-3.7h30.22s10.14,19.3,10.53,20.08ZM90.77,8.28,83,12.57c-3.9-1.17-11.7-5.85-26.32-5.85-12.48,0-33.74,6.83-33.74,32.37,0,18.33,17,26.32,20.09,27.69H14.53L7.12,99.15H31.69s5.65-3.71,6-3.71c.78,0,12.09,9.75,33,9.75,21.25,0,37-10.33,37-31.59,0-9.94-2.92-22.23-26.9-32.17h28.66l6.24-33.15ZM106,37.92H79.07V30.7c0-1.95-1.36-7.21-7.8-7.21-4.29,0-8.38,2.34-8.38,7.21,0,4.49,3.7,7.8,14.82,13.07C98.18,53.52,102.86,62.68,102.86,74c0,18.92-14.62,27.3-32.37,27.3A51.81,51.81,0,0,1,38.12,90.37l-8,4.68H12.19l5.65-25.54H43.39v9.16c0,2.93,4.29,5.85,8.19,5.85,5.46,0,8.19-3.9,8.19-8,0-14.63-32.57-9.56-32.57-39,0-15.4,12.09-27.1,30.23-27.1,10.72,0,20.86,4.87,25.93,6.63l9.17-5.46h18.52ZM46.9,68.34c6,2.14,8.77,5.26,8.77,8.58,0,2.34-1.17,4.29-3.9,4.29a4.59,4.59,0,0,1-4.87-4.1ZM75.37,38.7c-4.1-1.76-8.58-4.68-8.58-8.19a3.48,3.48,0,0,1,3.7-3.71c4.49,0,4.88,4.1,4.88,7.61Z" transform="translate(-2.24 -3.41)"/><path class="cls-1" d="M162.53,4.77h62.4l15,23.21,6.44,49.72,7,8-5.66,32.18H137.38l-15-16.19,6.44-25.35,15.4-6,18.14-34.52-8.19-6.24Zm4.1,3.51L159.8,28.36l7.61,5.27L146.93,73.8l-13.84,5.26-4.88,20.09H234.09L238,78.48,229.8,73.8,222,8.09ZM218.1,11.6l7,64.54,7,4.29-2.73,14.62h-53L179.3,81.6l10.14-3.71L188.66,68H170.53L166,77.7l8.39,3.7-3.32,13.65H134.06l3.32-13.45,13.26-4.88,22-44.46-7.8-5.46s5.46-15,5.46-15.2ZM183.59,71.46l.59,4.29-6.63,2.53-5.27-2.53,1.95-4.29Zm.78-34.91-9.16,19.7h12.48V36.55Zm-1.17,15.8h-1.95l2.54-5.66Z" transform="translate(-2.24 -3.41)"/><path class="cls-1" d="M348.75,4.77c16,0,21.06,9.36,23.6,14.24l.39.78c3.9,7.21,10.72,22,10.72,26.71A19.76,19.76,0,0,1,371,64.83a13,13,0,0,1,2.34,7.6,21.87,21.87,0,0,1-.19,3.32l11.31,7.41-5.66,34.71H269l-14.23-16.19,5.46-25.93,10.14-4.1,6.24-33.34-8.39-5.85L273.1,4.77ZM273.29,29.92,281.48,35l-7.41,40-9.75,3.7-4.09,20.48H365.52L369,79.84,358.31,75a37,37,0,0,0,.19-4.49c0-5.85-1.36-11.11-4.87-14.82,13.26-4.48,16-14.62,16-24.18,0-12.86-7.61-23.39-23-23.39H277.39Zm8-18.71h63.56c11.7,0,19.5,7.8,19.5,19.89,0,16.57-11.31,21.44-18.91,22.42,5.85,4.29,7.6,10.92,7.6,17.94a57.46,57.46,0,0,1-.39,5.85L363,82l-2.54,12.87H318.14c2.92-18.53,3.7-23.6,3.7-24.38,0-.58-.19-7.21-10.53-7.21H310L307,78.09l8.18,2.73-2.34,14H266.08l2.53-13.26L278,78.09l8.19-45.63L278,27.58Zm30.41,34.7a40.71,40.71,0,0,0,4.49.39c8,0,13.06-5.26,13.06-13.84,0-3.9-2.53-8-7.8-8H315.6Zm1.37,21.84a1.47,1.47,0,0,1,1-.19,3.4,3.4,0,0,1,3.32,2.34l-1.17,6.43-4.29-1.56ZM319.7,29h1c2.54,0,3.32,2.53,3.32,4.87,0,5.07-3.12,8.19-5.85,8.19-1,0-1-.19-1-.19Z" transform="translate(-2.24 -3.41)"/><path class="cls-1" d="M424.61,4.77H487L502,28l6.44,49.72,7,8-5.66,32.18H399.46l-15-16.19,6.44-25.35,15.4-6,18.13-34.52-8.18-6.24Zm4.09,3.51-6.82,20.08,7.6,5.27L409,73.8l-13.84,5.26-4.88,20.09H496.17l3.9-20.67-8.19-4.68-7.8-65.71Zm51.48,3.32,7,64.54,7,4.29-2.73,14.62h-53l2.93-13.45,10.14-3.71L450.74,68H432.6l-4.48,9.75,8.38,3.7-3.31,13.65H396.14l3.32-13.45,13.25-4.88,22-44.46L427,26.8s5.46-15,5.46-15.2ZM445.67,71.46l.58,4.29-6.63,2.53-5.26-2.53,1.95-4.29Zm.78-34.91-9.17,19.7h12.48V36.55Zm-1.17,15.8h-1.95l2.53-5.66Z" transform="translate(-2.24 -3.41)"/><path class="cls-1" d="M540.24,4.77H657.82l10.34,19.69-5.07,21.26-9.36,2.53-7.6,29.64,8,6.83-5.46,33.15h-115l-16-16.19,7-26.32,10.14-4.29,8.39-35.69L534,30.12Zm-1.17,23.4,8.58,4.09-9.94,42.12-9.36,3.9-5.66,20.87H634.62l4.68-20.48-7.21-4.09,9.36-42.32,9.75-3.7,3.31-20.28H543.75ZM547.26,11h48.56L592.5,25.25l-6.63,3.31-3.7,16.38h16.38l3.51-16.19-5.27-3.5L599.72,11h50.11l-2.15,14.24L638.13,29,627.21,77.11l6.44,3.51-3.12,14.63H582.36l2.73-13.65,6.44-3.9L595.43,60h-15.8l-4.48,17.94,5.46,3.32-3.12,14H528.15L531.86,81l9.55-3.9,10.92-47.77L544,25.25Zm35.88,52.65h7l-2.53,11.5-4.1,2L580.41,75Zm6.44-31.59,4.09-2.34,2.73,2.14-1.95,8.58h-6.82Z" transform="translate(-2.24 -3.41)"/><path class="cls-1" d="M856.53,60h-15l10,19.11a37.58,37.58,0,0,1,1.36,9.75c0,17.16-13.84,33.35-40,33.35-9.94,0-19.3-4.29-25.93-6.24l-5.07,4.87H753.38l-18.92-19.3,8.78-39h18.52a28.65,28.65,0,0,1-11.31-23.21c0-22.61,16.58-35.87,39-35.87a70.12,70.12,0,0,1,24.38,4.68c.19,0,.58.19.78.19l7-3.7h30.22S862,23.88,862.38,24.66ZM823,8.28l-7.8,4.29c-3.9-1.17-11.7-5.85-26.32-5.85-12.48,0-33.74,6.83-33.74,32.37,0,18.33,17,26.32,20.09,27.69H746.75l-7.41,32.37h24.57s5.65-3.71,6-3.71c.78,0,12.09,9.75,33,9.75,21.25,0,37-10.33,37-31.59,0-9.94-2.92-22.23-26.9-32.17h28.66L848,8.28ZM838.2,37.92H811.29V30.7c0-1.95-1.36-7.21-7.8-7.21-4.29,0-8.38,2.34-8.38,7.21,0,4.49,3.7,7.8,14.82,13.07C830.4,53.52,835.08,62.68,835.08,74c0,18.92-14.62,27.3-32.37,27.3a51.81,51.81,0,0,1-32.37-10.92l-8,4.68H744.41l5.65-25.54h25.55v9.16c0,2.93,4.29,5.85,8.19,5.85,5.46,0,8.19-3.9,8.19-8,0-14.63-32.57-9.56-32.57-39,0-15.4,12.09-27.1,30.23-27.1,10.72,0,20.86,4.87,25.93,6.63l9.17-5.46h18.52ZM779.12,68.34c6,2.14,8.77,5.26,8.77,8.58,0,2.34-1.17,4.29-3.9,4.29a4.59,4.59,0,0,1-4.87-4.1ZM807.59,38.7C803.49,36.94,799,34,799,30.51a3.48,3.48,0,0,1,3.7-3.71c4.49,0,4.88,4.1,4.88,7.61Z" transform="translate(-2.24 -3.41)"/><path class="cls-1" d="M976.26,64.44H959.88l13.45,16.38c-2,9.75-10.92,40-49.72,40-21.84,0-62.2-17.35-62.2-61.62,0-39.19,29.25-54.79,51.48-54.79,13.06,0,20.86,4.1,25.73,7.41l6.63-7.21H972S985,26,985,26.61,976.26,64.44,976.26,64.44ZM947.2,7.5l-7.8,9.36c-.78,0-9.74-9.75-27.29-9.75-21.26,0-47.19,16.57-47.19,52.06,0,38.42,30.81,44.66,42.9,44.66,30.22,0,46.6-18.53,48.74-39.59H923c-.78,3.12-4.1,17.36-11.12,17.36-4.29,0-7.21-6.63-7.21-15.21,0-15,7-36.86,17.55-36.86,4.09,0,6.43,2.73,6.43,7.61a52,52,0,0,1-1.75,10.33l34.31-.19L969.82,7.5ZM965,11l-7.22,32.56c0,.2-25.73.2-25.73.2a38.73,38.73,0,0,0,.58-7c0-5.65-2.92-11.12-9.55-11.12-13.85,0-22.62,23-22.62,39.39,0,11.12,2.92,20.28,10.53,20.28,10.14,0,14.42-14,15.21-17.74h25.54c-1.17,13.65-14.63,32.56-43.09,32.56-15.6,0-39.78-8.19-39.78-41.92,0-31.4,23.79-47.77,43.09-47.77,11.51,0,20.28,4.09,27.69,12.48L949.54,11Z" transform="translate(-2.24 -3.41)"/><path class="cls-1" d="M997.12,4.77H1114.7L1125,24.46,1120,45.72l-9.36,2.53L1103,77.89l8,6.83-5.46,33.15h-115l-16-16.19,7-26.32,10.13-4.29,8.39-35.69-9.17-5.26ZM996,28.17l8.58,4.09-9.94,42.12-9.36,3.9-5.65,20.87H1091.5l4.68-20.48L1089,74.58l9.36-42.32,9.75-3.7,3.31-20.28H1000.63ZM1004.14,11h48.56l-3.32,14.24-6.63,3.31-3.7,16.38h16.38l3.51-16.19-5.27-3.5L1056.6,11h50.11l-2.15,14.24L1095,29l-10.92,48.16,6.44,3.51-3.12,14.63h-48.17L1042,81.6l6.44-3.9,3.9-17.75h-15.8L1032,77.89l5.46,3.32-3.12,14H985L988.74,81l9.55-3.9,10.92-47.77-8.38-4.09ZM1040,63.66h7l-2.53,11.5-4.1,2L1037.29,75Zm6.44-31.59,4.09-2.34,2.73,2.14-2,8.58h-6.82Z" transform="translate(-2.24 -3.41)"/><path class="cls-1" d="M1245.74,4.77l11.9,18.72L1253,45.72l-13.26,2.73L1230,91c-4.49,18.91-15.41,29.83-46,29.83-6.82,0-19.69-1.36-27.88-6.63-5.85-3.7-27.3-18.91-27.5-34.71-.39-1.17,7.41-33.93,8-37.63l-11.31-10.53,5.85-26.52ZM1135.57,7.89l-4.48,20.67,12.28,4.29-9.75,46.21c0,10.34,14.43,24.18,40.37,24.18,18.32,0,35.48-4.29,40.16-25.54l9.75-43.29,12.87-4.29,4.49-22Zm60.64,2.54-2.92,15-8.58,3.9s-9.55,41.53-9.55,44.85c0,3.51,2.34,7.8,8.38,7.8,9.56,0,11.7-7.22,12.67-11.12l8.19-40.36-6.24-5.07,2.93-15H1237l-3.32,16.37-13.45,4.68-10.34,44.07c-2.34,10-5.46,23.4-36.07,23.6-19.5.19-34.51-9.17-35.49-20.28-.19-3.71,10-49.34,10.14-49.14l-12.28-3.32,3.12-16Zm-1.16,18.91,4.09,3.9-7.21,36.27c-1,4.29-2.93,8.77-7.61,8.77-3.12.2-5.26-3.12-4.48-6.82l8.77-39.39Z" transform="translate(-2.24 -3.41)"/><path class="cls-1" d="M1269.93,4.58h53.81l7,22,11.9-22H1407l10.72,19.88-4.88,19.89-8,2.54-8,29.64,8.38,8.19-5.65,33.15H1265.25l-17.36-16.38,5.46-28.28,10.73-3.9,7.8-29.25-9.17-7Zm-1.37,25.93,8.78,6.24-9.95,36.66-9.16,2.92-4.29,22.82h41.92l1.36-8,2.34,8H1321l6-11.51-2.15,11.51h61.23L1389.65,80l-7.41-4.68,9.56-44.07,9.36-3.51,3.11-19.69h-57.91L1328.23,38.7l-9-30.61h-45.43Zm9.36-19.3h37.63l11.31,38.41,22.82-38.41h49.53l-2.54,13.84-8.77,3.31-11.12,49,7.41,4.09-2.73,14H1331L1333.3,81l7.41-3.51,7.6-35.1-30.81,53h-13.65l-12.09-39.58-4.87,21.84,8,3.12-3.51,14.62h-31.78l3.12-14.62,8.19-3.12L1282.6,34l-9-5.85Zm14.43,59.47,1.75,5.85-2.73-1.17Zm46.8-4.1-2.93,8.58-3.51,1.76Z" transform="translate(-2.24 -3.41)"/><path class="cls-1" d="M1448.15,4.77h62.4l15,23.21L1532,77.7l7,8-5.66,32.18H1423l-15-16.19,6.44-25.35,15.4-6L1448,35.77l-8.19-6.24Zm4.1,3.51-6.83,20.08,7.61,5.27L1432.55,73.8l-13.84,5.26-4.88,20.09h105.88l3.9-20.67-8.19-4.68-7.8-65.71Zm51.48,3.32,7,64.54,7,4.29L1515,95.05h-53l2.92-13.45,10.14-3.71-.78-9.94h-18.13l-4.49,9.75,8.39,3.7-3.32,13.65h-37L1423,81.6l13.26-4.88,22-44.46-7.8-5.46s5.46-15,5.46-15.2Zm-34.52,59.86.59,4.29-6.63,2.53-5.27-2.53,1.95-4.29Zm.78-34.91-9.16,19.7h12.48V36.55Zm-1.17,15.8h-2l2.54-5.66Z" transform="translate(-2.24 -3.41)"/><path class="cls-1" d="M1651.92,64.44h-16.37L1649,80.82c-2,9.75-10.92,40-49.72,40-21.84,0-62.21-17.35-62.21-61.62,0-39.19,29.25-54.79,51.48-54.79,13.07,0,20.87,4.1,25.74,7.41l6.63-7.21h26.71s13.07,21.45,13.07,22S1651.92,64.44,1651.92,64.44ZM1622.87,7.5l-7.8,9.36c-.78,0-9.75-9.75-27.3-9.75-21.25,0-47.19,16.57-47.19,52.06,0,38.42,30.81,44.66,42.9,44.66,30.23,0,46.6-18.53,48.75-39.59h-33.54c-.78,3.12-4.09,17.36-11.11,17.36-4.29,0-7.22-6.63-7.22-15.21,0-15,7-36.86,17.55-36.86,4.1,0,6.44,2.73,6.44,7.61a52.1,52.1,0,0,1-1.76,10.33l34.32-.19,8.58-39.78ZM1640.61,11l-7.21,32.56c0,.2-25.74.2-25.74.2a37.79,37.79,0,0,0,.59-7c0-5.65-2.93-11.12-9.56-11.12-13.84,0-22.62,23-22.62,39.39,0,11.12,2.93,20.28,10.53,20.28,10.14,0,14.43-14,15.21-17.74h25.55c-1.18,13.65-14.63,32.56-43.1,32.56-15.6,0-39.78-8.19-39.78-41.92,0-31.4,23.79-47.77,43.1-47.77,11.5,0,20.28,4.09,27.69,12.48l9.94-11.9Z" transform="translate(-2.24 -3.41)"/><path class="cls-1" d="M1675.71,4.77h117.58l10.34,19.69-5.07,21.26-9.36,2.53-7.6,29.64,8,6.83-5.46,33.15H1669.08l-16-16.19,7-26.32,10.14-4.29,8.38-35.69-9.17-5.26Zm-1.16,23.4,8.57,4.09-9.94,42.12-9.36,3.9-5.65,20.87h111.92l4.68-20.48-7.21-4.09,9.36-42.32,9.75-3.7L1790,8.28H1679.22ZM1682.73,11h48.56L1728,25.25l-6.63,3.31-3.7,16.38H1734l3.51-16.19-5.27-3.5L1735.19,11h50.11l-2.14,14.24L1773.6,29l-10.92,48.16,6.44,3.51L1766,95.25h-48.17l2.73-13.65,6.44-3.9L1730.9,60h-15.8l-4.48,17.94,5.46,3.32-3.12,14h-49.33l3.7-14.24,9.55-3.9,10.92-47.77-8.38-4.09Zm35.88,52.65h7l-2.53,11.5-4.1,2L1715.88,75Zm6.44-31.59,4.09-2.34,2.73,2.14-1.95,8.58h-6.82Z" transform="translate(-2.24 -3.41)"/><path class="cls-1" d="M1911.07,4.58l10.73,20.86c0-.39-7.61,36.07-7.61,36.07h-13.84L1910.49,80l-6.63,37.83H1813l-16.77-15.8,7.22-26.91L1814,70.68l8.19-35.3L1813,29.92l6-25.34Zm-93,23.2,8.58,4.48-9.75,41.93-9.55,4.09-5.46,20.87h87.35l6.83-35.88h-20.67l2.93-20.87H1899l6.63-34.51h-82.87ZM1900.93,11l-5.26,27.49h-17.55L1877,22.32h-15.21l-3.31,20.08H1874l-3.32,20.48h-15.6l-3.7,20.86h15.79l7.41-16.18H1891l-5.65,27.69h-77.81l3.32-13.85,9.75-4.09,10.72-48-8.19-4.29,3.12-14ZM1859,67.56h11.7l-6.24,12.28h-8Zm14-41.53,1,12.47H1863.3l2-12.47Z" transform="translate(-2.24 -3.41)"/><path class="cls-1" d="M2009.35,4.77c16,0,21.06,9.36,23.6,14.24l.39.78c3.9,7.21,10.72,22,10.72,26.71a19.76,19.76,0,0,1-12.48,18.33,13,13,0,0,1,2.34,7.6,21.87,21.87,0,0,1-.19,3.32L2045,83.16l-5.66,34.71H1929.6l-14.23-16.19,5.46-25.93,10.14-4.1,6.24-33.34-8.39-5.85,4.88-27.69Zm-75.46,25.15,8.19,5.07-7.41,40-9.75,3.7-4.09,20.48h105.29l3.51-19.31L2018.91,75a37,37,0,0,0,.19-4.49c0-5.85-1.36-11.11-4.87-14.82,13.26-4.48,16-14.62,16-24.18,0-12.86-7.61-23.39-23-23.39H1938Zm8-18.71h63.56c11.7,0,19.5,7.8,19.5,19.89,0,16.57-11.31,21.44-18.91,22.42,5.85,4.29,7.6,10.92,7.6,17.94a57.46,57.46,0,0,1-.39,5.85L2023.59,82l-2.54,12.87h-42.31c2.93-18.53,3.7-23.6,3.7-24.38,0-.58-.19-7.21-10.52-7.21h-1.37l-2.92,14.82,8.19,2.73-2.34,14h-46.8l2.53-13.26,9.36-3.51,8.19-45.63-8.19-4.88Zm30.42,34.7a40.69,40.69,0,0,0,4.48.39c8,0,13.06-5.26,13.06-13.84,0-3.9-2.53-8-7.8-8h-5.85Zm1.36,21.84a1.5,1.5,0,0,1,1-.19A3.4,3.4,0,0,1,1978,69.9l-1.17,6.43-4.29-1.56ZM1980.3,29h1c2.53,0,3.31,2.53,3.31,4.87,0,5.07-3.12,8.19-5.85,8.19-1,0-1-.19-1-.19Z" transform="translate(-2.24 -3.41)"/></svg>