<svg id="Layer_1" data-name="Layer 1" xmlns="http://www.w3.org/2000/svg" viewBox="0 0 1310.57 264.21"><defs><style>.cls-1{fill:#1e2334;}</style></defs><path class="cls-1" d="M127.31,60h-15l9.95,19.11a37.58,37.58,0,0,1,1.36,9.75c0,17.16-13.84,33.35-40,33.35-9.94,0-19.3-4.29-25.93-6.24l-5.07,4.87H24.16L5.24,101.49l8.78-39H32.54A28.65,28.65,0,0,1,21.23,39.28c0-22.61,16.58-35.87,39-35.87A70.12,70.12,0,0,1,84.61,8.09c.19,0,.58.19.78.19l7-3.7h30.22s10.14,19.3,10.53,20.08ZM93.77,8.28,86,12.57c-3.9-1.17-11.7-5.85-26.32-5.85-12.48,0-33.74,6.83-33.74,32.37,0,18.33,17,26.32,20.09,27.69H17.53L10.12,99.15H34.69s5.65-3.71,6-3.71c.78,0,12.09,9.75,33,9.75,21.25,0,37-10.33,37-31.59,0-9.94-2.92-22.23-26.9-32.17h28.66l6.24-33.15ZM109,37.92H82.07V30.7c0-1.95-1.36-7.21-7.8-7.21-4.29,0-8.38,2.34-8.38,7.21,0,4.49,3.7,7.8,14.82,13.07,20.47,9.75,25.15,18.91,25.15,30.22,0,18.92-14.62,27.3-32.37,27.3A51.81,51.81,0,0,1,41.12,90.37l-8,4.68H15.19l5.65-25.54H46.39v9.16c0,2.93,4.29,5.85,8.19,5.85,5.46,0,8.19-3.9,8.19-8,0-14.63-32.57-9.56-32.57-39,0-15.4,12.09-27.1,30.23-27.1,10.72,0,20.86,4.87,25.93,6.63l9.17-5.46h18.52ZM49.9,68.34c6,2.14,8.77,5.26,8.77,8.58,0,2.34-1.17,4.29-3.9,4.29a4.59,4.59,0,0,1-4.87-4.1ZM78.37,38.7c-4.1-1.76-8.58-4.68-8.58-8.19a3.48,3.48,0,0,1,3.7-3.71c4.49,0,4.88,4.1,4.88,7.61Z" transform="translate(-3.54 -3.41)"/><path class="cls-1" d="M165.53,4.77h62.4l15,23.21,6.44,49.72,7,8-5.66,32.18H140.38l-15-16.19,6.44-25.35,15.4-6,18.14-34.52-8.19-6.24Zm4.1,3.51L162.8,28.36l7.61,5.27L149.93,73.8l-13.84,5.26-4.88,20.09H237.09L241,78.48,232.8,73.8,225,8.09ZM221.1,11.6l7,64.54,7,4.29-2.73,14.62h-53L182.3,81.6l10.14-3.71L191.66,68H173.53L169,77.7l8.39,3.7-3.32,13.65H137.06l3.32-13.45,13.26-4.88,22-44.46-7.8-5.46s5.46-15,5.46-15.2ZM186.59,71.46l.59,4.29-6.63,2.53-5.27-2.53,1.95-4.29Zm.78-34.91-9.16,19.7h12.48V36.55Zm-1.17,15.8h-1.95l2.54-5.66Z" transform="translate(-3.54 -3.41)"/><path class="cls-1" d="M351.75,4.77c16,0,21.06,9.36,23.6,14.24l.39.78c3.9,7.21,10.72,22,10.72,26.71A19.76,19.76,0,0,1,374,64.83a13,13,0,0,1,2.34,7.6,21.87,21.87,0,0,1-.19,3.32l11.31,7.41-5.66,34.71H272l-14.23-16.19,5.46-25.93,10.14-4.1,6.24-33.34-8.39-5.85L276.1,4.77ZM276.29,29.92,284.48,35l-7.41,40-9.75,3.7-4.09,20.48H368.52L372,79.84,361.31,75a37,37,0,0,0,.19-4.49c0-5.85-1.36-11.11-4.87-14.82,13.26-4.48,16-14.62,16-24.18,0-12.86-7.61-23.39-23-23.39H280.39Zm8-18.71h63.56c11.7,0,19.5,7.8,19.5,19.89,0,16.57-11.31,21.44-18.91,22.42,5.85,4.29,7.6,10.92,7.6,17.94a57.46,57.46,0,0,1-.39,5.85L366,82l-2.54,12.87H321.14c2.92-18.53,3.7-23.6,3.7-24.38,0-.58-.19-7.21-10.53-7.21H313L310,78.09l8.18,2.73-2.34,14H269.08l2.53-13.26L281,78.09l8.19-45.63L281,27.58Zm30.41,34.7a40.71,40.71,0,0,0,4.49.39c8,0,13.06-5.26,13.06-13.84,0-3.9-2.53-8-7.8-8H318.6Zm1.37,21.84a1.47,1.47,0,0,1,1-.19,3.4,3.4,0,0,1,3.32,2.34l-1.17,6.43-4.29-1.56ZM322.7,29h1c2.54,0,3.32,2.53,3.32,4.87,0,5.07-3.12,8.19-5.85,8.19-1,0-1-.19-1-.19Z" transform="translate(-3.54 -3.41)"/><path class="cls-1" d="M427.61,4.77H490L505,28l6.44,49.72,7,8-5.66,32.18H402.46l-15-16.19,6.44-25.35,15.4-6,18.13-34.52-8.18-6.24Zm4.09,3.51-6.82,20.08,7.6,5.27L412,73.8l-13.84,5.26-4.88,20.09H499.17l3.9-20.67-8.19-4.68-7.8-65.71Zm51.48,3.32,7,64.54,7,4.29-2.73,14.62h-53l2.93-13.45,10.14-3.71L453.74,68H435.6l-4.48,9.75,8.38,3.7-3.31,13.65H399.14l3.32-13.45,13.25-4.88,22-44.46L430,26.8s5.46-15,5.46-15.2ZM448.67,71.46l.58,4.29-6.63,2.53-5.26-2.53,1.95-4.29Zm.78-34.91-9.17,19.7h12.48V36.55Zm-1.17,15.8h-1.95l2.53-5.66Z" transform="translate(-3.54 -3.41)"/><path class="cls-1" d="M543.24,4.77H660.82l10.34,19.69-5.07,21.26-9.36,2.53-7.6,29.64,8,6.83-5.46,33.15h-115l-16-16.19,7-26.32,10.14-4.29,8.39-35.69L537,30.12Zm-1.17,23.4,8.58,4.09-9.94,42.12-9.36,3.9-5.66,20.87H637.62l4.68-20.48-7.21-4.09,9.36-42.32,9.75-3.7,3.31-20.28H546.75ZM550.26,11h48.56L595.5,25.25l-6.63,3.31-3.7,16.38h16.38l3.51-16.19-5.27-3.5L602.72,11h50.11l-2.15,14.24L641.13,29,630.21,77.11l6.44,3.51-3.12,14.63H585.36l2.73-13.65,6.44-3.9L598.43,60h-15.8l-4.48,17.94,5.46,3.32-3.12,14H531.15L534.86,81l9.55-3.9,10.92-47.77L547,25.25Zm35.88,52.65h7l-2.53,11.5-4.1,2L583.41,75Zm6.44-31.59,4.09-2.34,2.73,2.14-1.95,8.58h-6.82Z" transform="translate(-3.54 -3.41)"/><path class="cls-1" d="M125.61,205.42h-15l10,19.1a37.58,37.58,0,0,1,1.36,9.75c0,17.16-13.84,33.35-40,33.35-9.94,0-19.3-4.29-25.93-6.24l-5.07,4.87H22.46L3.54,247l8.78-39H30.84a28.62,28.62,0,0,1-11.31-23.2c0-22.62,16.58-35.88,39-35.88a70,70,0,0,1,24.37,4.68c.2,0,.59.19.78.19l7-3.7h30.23s10.14,19.3,10.53,20.08ZM92.07,153.74,84.27,158c-3.9-1.17-11.7-5.85-26.32-5.85-12.48,0-33.74,6.83-33.74,32.37,0,18.33,17,26.33,20.09,27.69H15.83L8.42,244.61H33s5.65-3.71,6-3.71c.78,0,12.09,9.75,33,9.75,21.25,0,37-10.33,37-31.59,0-9.94-2.92-22.22-26.91-32.17h28.67L117,153.74Zm15.21,29.64H80.37v-7.21a7.32,7.32,0,0,0-7.8-7.22c-4.29,0-8.38,2.34-8.38,7.22,0,4.48,3.7,7.8,14.81,13.06,20.48,9.75,25.16,18.92,25.16,30.23,0,18.91-14.63,27.29-32.37,27.29a51.81,51.81,0,0,1-32.37-10.92l-8,4.68H13.49L19.14,215H44.69v9.16c0,2.93,4.29,5.85,8.19,5.85,5.46,0,8.19-3.9,8.19-8,0-14.62-32.57-9.55-32.57-39,0-15.4,12.09-27.1,30.23-27.1,10.72,0,20.86,4.87,25.93,6.63l9.16-5.46h18.53ZM48.2,213.8c6,2.14,8.77,5.26,8.77,8.58,0,2.34-1.17,4.29-3.9,4.29a4.59,4.59,0,0,1-4.87-4.09Zm28.46-29.64c-4.09-1.75-8.57-4.68-8.57-8.19a3.47,3.47,0,0,1,3.7-3.7c4.48,0,4.87,4.09,4.87,7.6Z" transform="translate(-3.54 -3.41)"/><path class="cls-1" d="M245.34,209.9H229l13.45,16.38c-1.95,9.75-10.92,40-49.72,40-21.84,0-62.2-17.35-62.2-61.61,0-39.2,29.25-54.8,51.47-54.8,13.07,0,20.87,4.1,25.74,7.41l6.63-7.21h26.72s13.06,21.45,13.06,22S245.34,209.9,245.34,209.9ZM216.28,153l-7.8,9.36c-.78,0-9.75-9.75-27.29-9.75-21.26,0-47.19,16.58-47.19,52.07,0,38.41,30.81,44.65,42.89,44.65,30.23,0,46.61-18.53,48.75-39.58H192.1c-.78,3.12-4.09,17.35-11.11,17.35-4.29,0-7.21-6.63-7.21-15.21,0-15,7-36.85,17.54-36.85,4.1,0,6.44,2.73,6.44,7.6A52.19,52.19,0,0,1,196,192.94l34.32-.2L238.9,153ZM234,156.47,226.81,189c0,.19-25.74.19-25.74.19a37.72,37.72,0,0,0,.59-7c0-5.65-2.93-11.11-9.56-11.11-13.84,0-22.61,23-22.61,39.39,0,11.11,2.92,20.27,10.53,20.27,10.13,0,14.42-14,15.2-17.74h25.55c-1.17,13.65-14.63,32.56-43.1,32.56-15.59,0-39.77-8.19-39.77-41.92,0-31.39,23.79-47.77,43.09-47.77,11.5,0,20.28,4.09,27.69,12.48l9.94-11.9Z" transform="translate(-3.54 -3.41)"/><path class="cls-1" d="M266.2,150.23H383.78l10.34,19.7-5.07,21.25-9.36,2.54-7.61,29.64,8,6.82-5.46,33.15h-115l-16-16.19,7-26.32,10.14-4.29,8.39-35.68L260,175.58ZM265,173.63l8.58,4.1-9.94,42.11-9.36,3.9-5.66,20.87H360.58l4.68-20.48L358,220l9.36-42.31,9.75-3.71,3.32-20.28H269.71Zm8.19-17.16h48.56l-3.32,14.24L311.83,174l-3.7,16.38h16.38L328,174.22l-5.27-3.51,2.93-14.24h50.11l-2.15,14.24-9.55,3.7-10.92,48.17,6.43,3.5-3.11,14.63H308.32l2.73-13.65,6.44-3.9,3.9-17.74h-15.8l-4.48,17.94,5.46,3.31-3.12,14H254.11l3.71-14.23,9.55-3.9,10.92-47.78-8.38-4.09Zm35.88,52.65h7l-2.53,11.5-4.1,2-3.12-2.15Zm6.44-31.59,4.09-2.34,2.73,2.15-1.95,8.58h-6.82Z" transform="translate(-3.54 -3.41)"/><path class="cls-1" d="M514.82,150.23,526.72,169,522,191.18l-13.26,2.73L499,236.42c-4.49,18.91-15.41,29.83-46,29.83-6.82,0-19.69-1.36-27.88-6.63-5.85-3.7-27.3-18.91-27.5-34.71-.39-1.17,7.41-33.92,8-37.63l-11.31-10.53,5.85-26.52Zm-110.17,3.12L400.17,174l12.28,4.29-9.75,46.21c0,10.34,14.43,24.18,40.37,24.18,18.32,0,35.48-4.29,40.16-25.54L493,179.87l12.87-4.29,4.49-22Zm60.64,2.54-2.92,15-8.58,3.9s-9.55,41.54-9.55,44.85c0,3.51,2.33,7.8,8.38,7.8,9.55,0,11.7-7.21,12.67-11.11L473.48,176l-6.24-5.07,2.93-15h35.88l-3.32,16.38L489.28,177,478.94,221c-2.34,10-5.46,23.4-36.07,23.6-19.5.19-34.51-9.17-35.49-20.28-.19-3.71,9.95-49.33,10.14-49.14l-12.28-3.31,3.12-16Zm-1.17,18.91,4.1,3.9L461,215c-1,4.29-2.92,8.77-7.6,8.77-3.12.2-5.26-3.12-4.49-6.82l8.78-39.39Z" transform="translate(-3.54 -3.41)"/><path class="cls-1" d="M539,150h53.82l7,22,11.9-22h64.34l10.73,19.89-4.88,19.89-8,2.53-8,29.64,8.39,8.19-5.66,33.15H534.32L517,247l5.46-28.28,10.72-3.9,7.8-29.24-9.16-7ZM537.64,176l8.77,6.24-9.94,36.66-9.17,2.92L523,244.61h41.93l1.36-8,2.34,8h21.45l6-11.51L594,244.61h61.23l3.51-19.11-7.41-4.68,9.55-44.07,9.36-3.51,3.12-19.69H615.44l-18.13,30.61-9-30.61H542.9Zm9.36-19.3h37.63l11.31,38.41,22.82-38.41h49.52l-2.53,13.84L657,173.83l-11.11,48.94,7.41,4.09-2.73,14H600l2.34-14.42,7.41-3.52,7.6-35.09-30.81,53H572.93l-12.09-39.58L556,223.16l8,3.12-3.51,14.62H528.67l3.12-14.62,8.19-3.12,11.7-43.68-9-5.85Zm14.43,59.47,1.75,5.85-2.73-1.17Zm46.8-4.09-2.93,8.57-3.51,1.76Z" transform="translate(-3.54 -3.41)"/><path class="cls-1" d="M717.23,150.23h62.4l15,23.21,6.44,49.72,7,8-5.66,32.18H692.08l-15-16.19,6.44-25.35,15.4-6L717,181.24,708.85,175Zm4.1,3.51-6.83,20.09,7.61,5.26-20.48,40.17-13.84,5.26-4.88,20.09H788.79l3.9-20.67-8.19-4.68-7.8-65.71Zm51.47,3.32,7,64.54,7,4.29-2.73,14.62h-53L734,227.06l10.14-3.7-.78-10H725.23l-4.49,9.75,8.39,3.7-3.32,13.65h-37l3.32-13.45,13.26-4.88,22-44.45-7.8-5.46s5.46-15,5.46-15.21Zm-34.51,59.86.59,4.29-6.63,2.53L727,221.21l1.95-4.29Zm.78-34.9-9.16,19.69h12.48V182Zm-1.17,15.79H736l2.54-5.65Z" transform="translate(-3.54 -3.41)"/><path class="cls-1" d="M921,209.9H904.62l13.46,16.38c-2,9.75-10.92,40-49.73,40-21.83,0-62.2-17.35-62.2-61.61,0-39.2,29.25-54.8,51.48-54.8,13.06,0,20.86,4.1,25.74,7.41L890,150h26.71s13.07,21.45,13.07,22S921,209.9,921,209.9ZM892,153l-7.8,9.36c-.78,0-9.75-9.75-27.3-9.75-21.25,0-47.19,16.58-47.19,52.07,0,38.41,30.81,44.65,42.9,44.65,30.22,0,46.6-18.53,48.75-39.58H867.77c-.78,3.12-4.09,17.35-11.11,17.35-4.29,0-7.22-6.63-7.22-15.21,0-15,7-36.85,17.55-36.85,4.1,0,6.44,2.73,6.44,7.6a52.19,52.19,0,0,1-1.76,10.34l34.32-.2L914.57,153Zm17.74,3.51L902.48,189c0,.19-25.74.19-25.74.19a37.72,37.72,0,0,0,.59-7c0-5.65-2.93-11.11-9.56-11.11-13.84,0-22.62,23-22.62,39.39,0,11.11,2.93,20.27,10.53,20.27,10.14,0,14.43-14,15.21-17.74h25.54c-1.17,13.65-14.62,32.56-43.09,32.56-15.6,0-39.78-8.19-39.78-41.92,0-31.39,23.79-47.77,43.1-47.77,11.5,0,20.27,4.09,27.68,12.48l9.95-11.9Z" transform="translate(-3.54 -3.41)"/><path class="cls-1" d="M944.79,150.23h117.58l10.34,19.7-5.07,21.25-9.36,2.54-7.61,29.64,8,6.82-5.46,33.15H938.16l-16-16.19,7-26.32,10.14-4.29,8.39-35.68-9.17-5.27Zm-1.17,23.4,8.58,4.1-9.94,42.11-9.36,3.9-5.66,20.87h111.93l4.68-20.48-7.21-4.09,9.36-42.31,9.74-3.71,3.32-20.28H948.3Zm8.19-17.16h48.56l-3.32,14.24L990.42,174l-3.7,16.38h16.38l3.51-16.18-5.27-3.51,2.93-14.24h50.11l-2.14,14.24-9.56,3.7-10.92,48.17,6.44,3.5-3.13,14.63H986.91l2.73-13.65,6.44-3.9,3.9-17.74h-15.8l-4.48,17.94,5.46,3.31-3.12,14H932.7l3.71-14.23,9.55-3.9,10.92-47.78-8.38-4.09Zm35.88,52.65h7l-2.53,11.5-4.1,2L985,220.43Zm6.44-31.59,4.09-2.34,2.73,2.15-2,8.58h-6.82Z" transform="translate(-3.54 -3.41)"/><path class="cls-1" d="M1180.15,150l10.73,20.86c0-.39-7.61,36.08-7.61,36.08h-13.84l10.14,18.52-6.63,37.83h-90.87l-16.77-15.8,7.22-26.91,10.53-4.48,8.19-35.29-9.17-5.46,6-25.35Zm-93,23.2,8.58,4.49L1086,219.65l-9.55,4.09L1071,244.61h87.35l6.83-35.88h-20.67l2.92-20.86h20.67l6.63-34.52h-82.87ZM1170,156.47l-5.26,27.5H1147.2L1146,167.78h-15.21l-3.31,20.09h15.59l-3.31,20.47h-15.6l-3.7,20.86h15.79l7.41-16.18h16.38l-5.66,27.69h-77.8l3.32-13.85,9.75-4.09,10.72-48-8.19-4.29,3.12-14ZM1128.09,213h11.7l-6.24,12.28h-8Zm14-41.53,1,12.48h-10.72l1.95-12.48Z" transform="translate(-3.54 -3.41)"/><path class="cls-1" d="M1278.43,150.23c16,0,21.06,9.36,23.6,14.24l.39.78c3.9,7.21,10.72,22,10.72,26.71a19.74,19.74,0,0,1-12.48,18.33,13,13,0,0,1,2.34,7.6,21.87,21.87,0,0,1-.19,3.32l11.31,7.41-5.66,34.71H1198.68l-14.23-16.19,5.46-25.93,10.14-4.09,6.24-33.35-8.39-5.85,4.88-27.69ZM1203,175.39l8.19,5.07-7.41,40-9.75,3.7-4.09,20.48H1295.2l3.51-19.31L1288,220.43a37,37,0,0,0,.19-4.49c0-5.84-1.36-11.11-4.87-14.81,13.26-4.49,16-14.63,16-24.18,0-12.87-7.61-23.4-23-23.4h-69.22Zm8-18.72h63.56c11.7,0,19.5,7.8,19.5,19.89,0,16.57-11.31,21.45-18.91,22.42,5.85,4.29,7.6,10.92,7.6,17.94a57.46,57.46,0,0,1-.39,5.85l10.34,4.68-2.54,12.87h-42.31c2.92-18.53,3.7-23.59,3.7-24.38,0-.58-.19-7.21-10.53-7.21h-1.36l-2.93,14.82,8.19,2.73-2.34,14h-46.79l2.53-13.26,9.36-3.51,8.19-45.63-8.19-4.87Zm30.42,34.71a40.42,40.42,0,0,0,4.48.39c8,0,13.06-5.27,13.06-13.85,0-3.9-2.53-8-7.8-8h-5.85Zm1.36,21.84c.19-.2.58-.2,1-.2a3.41,3.41,0,0,1,3.32,2.34l-1.17,6.43-4.29-1.55Zm6.63-38.81h1c2.54,0,3.32,2.54,3.32,4.88,0,5.07-3.12,8.19-5.85,8.19-1,0-1-.2-1-.2Z" transform="translate(-3.54 -3.41)"/></svg>