<svg id="Layer_1" data-name="Layer 1" xmlns="http://www.w3.org/2000/svg" viewBox="0 0 1571.38 91.35"><defs><style>.cls-1{fill:#1e2334;}</style></defs><path class="cls-1" d="M95.9,47.27H84.35L92,62a28.86,28.86,0,0,1,1,7.5c0,13.2-10.65,25.65-30.75,25.65-7.65,0-14.85-3.3-19.95-4.8l-3.9,3.75H16.55L2,79.22l6.75-30H23a22,22,0,0,1-8.7-17.85C14.3,14,27.05,3.78,44.3,3.78a54,54,0,0,1,18.75,3.6c.15,0,.45.15.6.15l5.4-2.85H92.3s7.8,14.85,8.1,15.44ZM70.1,7.53l-6,3.3c-3-.9-9-4.5-20.25-4.5-9.6,0-25.95,5.25-25.95,24.89,0,14.1,13.05,20.25,15.45,21.3H11.45l-5.7,24.9h18.9S29,74.57,29.3,74.57c.6,0,9.3,7.5,25.35,7.5,16.35,0,28.5-7.95,28.5-24.3,0-7.65-2.25-17.1-20.7-24.75h22L89.3,7.53ZM81.8,30.32H61.1V24.77a5.62,5.62,0,0,0-6-5.54c-3.3,0-6.45,1.8-6.45,5.54,0,3.45,2.85,6,11.4,10.05C75.8,42.32,79.4,49.37,79.4,58.07c0,14.55-11.25,21-24.9,21a39.84,39.84,0,0,1-24.9-8.4l-6.15,3.6H9.65L14,54.62H33.65v7.05c0,2.25,3.3,4.5,6.3,4.5A5.94,5.94,0,0,0,46.25,60c0-11.25-25-7.35-25-30,0-11.84,9.3-20.84,23.25-20.84,8.25,0,16,3.75,20,5.1l7-4.2H85.7ZM36.35,53.72c4.65,1.65,6.75,4.05,6.75,6.6,0,1.8-.9,3.3-3,3.3a3.54,3.54,0,0,1-3.75-3.15Zm21.9-22.8c-3.15-1.35-6.6-3.6-6.6-6.3a2.68,2.68,0,0,1,2.85-2.85c3.45,0,3.75,3.15,3.75,5.85Z" transform="translate(-2 -3.78)"/><path class="cls-1" d="M125.3,4.83h48l11.55,17.85,5,38.24,5.4,6.15-4.35,24.75H106L94.4,79.37l4.95-19.5,11.85-4.65,14-26.55-6.3-4.79Zm3.15,2.7L123.2,23l5.85,4L113.3,57.92l-10.65,4L98.9,77.42h81.45l3-15.9-6.3-3.6-6-50.54Zm39.6,2.55,5.4,49.64,5.4,3.3-2.1,11.25H136l2.25-10.35,7.8-2.85-.6-7.65h-14L128,60.92l6.45,2.85-2.55,10.5H103.4L106,63.92l10.2-3.75L133.1,26l-6-4.21s4.2-11.54,4.2-11.69Zm-26.55,46,.45,3.3-5.1,1.95-4-1.95,1.5-3.3Zm.6-26.85-7,15.15h9.6V29.27Zm-.9,12.15h-1.5l2-4.35Z" transform="translate(-2 -3.78)"/><path class="cls-1" d="M268.55,4.83c12.3,0,16.2,7.2,18.14,11l.31.6c3,5.55,8.24,16.94,8.24,20.54A15.18,15.18,0,0,1,285.65,51a10,10,0,0,1,1.79,5.85,16.35,16.35,0,0,1-.15,2.55l8.7,5.7-4.34,26.7H207.2L196.25,79.37l4.2-20,7.8-3.15,4.8-25.65-6.45-4.5,3.75-21.29ZM210.5,24.17l6.3,3.9-5.7,30.75-7.5,2.85-3.15,15.75h81l2.7-14.85-8.25-3.75a27.73,27.73,0,0,0,.15-3.45c0-4.5-1.05-8.55-3.75-11.4,10.2-3.45,12.3-11.25,12.3-18.59,0-9.9-5.85-18-17.7-18H213.65Zm6.15-14.39h48.9c9,0,15,6,15,15.3,0,12.74-8.7,16.49-14.55,17.24,4.5,3.3,5.85,8.4,5.85,13.8,0,1.5-.15,3-.3,4.5l7.95,3.6-1.95,9.9H245c2.25-14.25,2.85-18.15,2.85-18.75,0-.45-.15-5.55-8.1-5.55H238.7l-2.25,11.4,6.3,2.1L241,74.12H205l2-10.2,7.2-2.7,6.3-35.1-6.3-3.74Zm23.4,26.69a31.31,31.31,0,0,0,3.45.3c6.15,0,10.05-4.05,10.05-10.65a5.84,5.84,0,0,0-6-6.14h-4.5Zm1,16.8a1.12,1.12,0,0,1,.75-.15,2.61,2.61,0,0,1,2.55,1.8l-.9,4.95-3.3-1.2Zm5.1-29.85H247c2,0,2.55,2,2.55,3.75,0,3.9-2.4,6.3-4.5,6.3-.75,0-.75-.15-.75-.15Z" transform="translate(-2 -3.78)"/><path class="cls-1" d="M326.9,4.83h48l11.54,17.85,4.95,38.24,5.4,6.15-4.35,24.75H307.55L296,79.37,301,59.87l11.85-4.65,13.95-26.55-6.3-4.79Zm3.15,2.7L324.8,23l5.85,4L314.9,57.92l-10.65,4L300.5,77.42h81.44l3-15.9-6.3-3.6-6-50.54Zm39.6,2.55L375,59.72l5.4,3.3-2.1,11.25H337.55l2.25-10.35,7.8-2.85-.6-7.65H333.05l-3.45,7.5,6.45,2.85-2.55,10.5H305l2.55-10.35,10.2-3.75L334.7,26l-6-4.21s4.2-11.54,4.2-11.69Zm-26.55,46,.45,3.3-5.1,1.95-4.05-1.95,1.5-3.3Zm.6-26.85-7.05,15.15h9.6V29.27Zm-.9,12.15h-1.5l1.95-4.35Z" transform="translate(-2 -3.78)"/><path class="cls-1" d="M415.85,4.83h90.44L514.24,20l-3.9,16.34-7.2,2-5.85,22.8,6.15,5.25-4.2,25.5H410.75l-12.3-12.45,5.4-20.25,7.8-3.3,6.45-27.44-7.05-4.05Zm-.9,18,6.6,3.15L413.9,58.37l-7.2,3-4.35,16.05h86.09L492,61.67l-5.55-3.15L493.69,26l7.5-2.86,2.55-15.59H418.55Zm6.3-13.2h37.34L456,20.58,451,23.12l-2.85,12.6h12.59l2.7-12.45-4.05-2.69,2.25-10.95h38.55l-1.65,10.95-7.35,2.84-8.4,37.05,4.95,2.7-2.4,11.25h-37l2.1-10.5,4.94-3,3-13.65H446.15l-3.45,13.8,4.2,2.55-2.4,10.8H406.55l2.85-11,7.35-3,8.4-36.74-6.45-3.15Zm27.6,40.49h5.4l-2,8.85-3.14,1.5-2.4-1.65Zm4.94-24.29L456.94,24l2.1,1.65-1.5,6.6h-5.25Z" transform="translate(-2 -3.78)"/><path class="cls-1" d="M659.14,47.27H647.59L655.24,62a28.86,28.86,0,0,1,1,7.5c0,13.2-10.65,25.65-30.75,25.65-7.65,0-14.85-3.3-19.95-4.8l-3.9,3.75H579.8L565.25,79.22l6.75-30h14.25a22,22,0,0,1-8.7-17.85c0-17.39,12.74-27.59,30-27.59a54,54,0,0,1,18.75,3.6c.15,0,.45.15.6.15l5.4-2.85h23.25s7.8,14.85,8.1,15.44ZM633.34,7.53l-6,3.3c-3-.9-9-4.5-20.25-4.5-9.6,0-25.94,5.25-25.94,24.89,0,14.1,13,20.25,15.44,21.3H574.7L569,77.42h18.9s4.35-2.85,4.64-2.85c.61,0,9.3,7.5,25.35,7.5,16.35,0,28.5-7.95,28.5-24.3,0-7.65-2.25-17.1-20.7-24.75h22l4.8-25.49ZM645,30.32h-20.7V24.77a5.62,5.62,0,0,0-6-5.54c-3.3,0-6.45,1.8-6.45,5.54,0,3.45,2.85,6,11.4,10.05,15.75,7.5,19.35,14.55,19.35,23.25,0,14.55-11.25,21-24.9,21a39.84,39.84,0,0,1-24.9-8.4l-6.14,3.6H572.9l4.35-19.65H596.9v7.05c0,2.25,3.29,4.5,6.29,4.5a5.94,5.94,0,0,0,6.3-6.15c0-11.25-25-7.35-25-30,0-11.84,9.3-20.84,23.24-20.84,8.25,0,16,3.75,19.95,5.1l7.05-4.2h14.25Zm-45.45,23.4c4.65,1.65,6.75,4.05,6.75,6.6,0,1.8-.9,3.3-3,3.3a3.54,3.54,0,0,1-3.75-3.15Zm21.9-22.8c-3.15-1.35-6.6-3.6-6.6-6.3a2.68,2.68,0,0,1,2.85-2.85c3.45,0,3.75,3.15,3.75,5.85Z" transform="translate(-2 -3.78)"/><path class="cls-1" d="M751.24,50.72h-12.6L749,63.32c-1.5,7.5-8.4,30.75-38.25,30.75-16.8,0-47.84-13.35-47.84-47.4,0-30.14,22.49-42.14,39.59-42.14,10,0,16,3.15,19.8,5.7l5.1-5.55h20.55s10,16.5,10,16.94S751.24,50.72,751.24,50.72ZM728.89,6.93l-6,7.2c-.6,0-7.5-7.5-21-7.5-16.35,0-36.29,12.75-36.29,40,0,29.55,23.69,34.35,33,34.35,23.25,0,35.85-14.25,37.5-30.45h-25.8c-.6,2.4-3.15,13.35-8.55,13.35-3.3,0-5.55-5.1-5.55-11.7,0-11.55,5.4-28.34,13.5-28.34,3.15,0,4.95,2.1,4.95,5.84a40.09,40.09,0,0,1-1.35,8l26.4-.15,6.6-30.59Zm13.65,2.7-5.55,25c0,.15-19.8.15-19.8.15a29.06,29.06,0,0,0,.45-5.4c0-4.34-2.25-8.54-7.35-8.54-10.65,0-17.4,17.69-17.4,30.29,0,8.55,2.25,15.6,8.1,15.6,7.8,0,11.1-10.8,11.7-13.65h19.65c-.9,10.5-11.25,25.05-33.15,25.05-12,0-30.59-6.3-30.59-32.25,0-24.15,18.29-36.74,33.14-36.74a26.7,26.7,0,0,1,21.3,9.6l7.65-9.15Z" transform="translate(-2 -3.78)"/><path class="cls-1" d="M767.29,4.83h90.45l8,15.15-3.9,16.34-7.2,2-5.85,22.8,6.15,5.25-4.2,25.5h-88.5l-12.3-12.45,5.4-20.25,7.8-3.3,6.45-27.44-7-4.05Zm-.9,18L773,26l-7.65,32.39-7.2,3-4.35,16.05h86.1l3.6-15.75-5.55-3.15L845.14,26l7.5-2.86,2.55-15.59H770Zm6.3-13.2H810l-2.55,10.95-5.1,2.54-2.85,12.6h12.6l2.7-12.45-4.05-2.69L813,9.63h38.55l-1.65,10.95-7.35,2.84-8.4,37.05,4.95,2.7-2.4,11.25h-37l2.1-10.5,5-3,3-13.65H797.59l-3.45,13.8,4.2,2.55-2.4,10.8H758l2.85-11,7.35-3,8.4-36.74-6.45-3.15Zm27.6,40.49h5.4l-2,8.85-3.15,1.5-2.4-1.65Zm5-24.29L808.39,24l2.1,1.65-1.5,6.6h-5.25Z" transform="translate(-2 -3.78)"/><path class="cls-1" d="M958.54,4.83l9.15,14.4-3.6,17.09-10.2,2.1-7.5,32.7c-3.45,14.55-11.85,22.95-35.4,22.95-5.25,0-15.15-1-21.45-5.1-4.5-2.85-21-14.55-21.15-26.7-.3-.9,5.7-26.1,6.15-28.95l-8.7-8.09,4.5-20.4Zm-84.75,2.4-3.45,15.89,9.45,3.3L872.29,62c0,8,11.1,18.6,31.05,18.6,14.1,0,27.3-3.3,30.9-19.65l7.5-33.3,9.9-3.29,3.45-16.95Zm46.65,1.95-2.25,11.55-6.6,3s-7.35,31.94-7.35,34.49c0,2.7,1.8,6,6.45,6,7.35,0,9-5.55,9.75-8.55l6.3-31-4.8-3.89,2.25-11.55h27.6l-2.55,12.59-10.35,3.61-7.95,33.89c-1.8,7.65-4.2,18-27.75,18.15-15,.15-26.55-7-27.3-15.6-.15-2.85,7.65-37.94,7.8-37.8l-9.45-2.54,2.4-12.3Zm-.9,14.55,3.15,3-5.55,27.89c-.75,3.3-2.25,6.75-5.85,6.75-2.4.15-4-2.4-3.45-5.25l6.75-30.29Z" transform="translate(-2 -3.78)"/><path class="cls-1" d="M977.14,4.68h41.4l5.4,16.94,9.15-16.94h49.5l8.24,15.3-3.75,15.29-6.14,1.95L1074.79,60l6.45,6.3-4.35,25.5H973.54l-13.35-12.6,4.2-21.75,8.25-3,6-22.5-7-5.4Zm-1,19.94,6.75,4.8-7.65,28.2-7.05,2.25-3.3,17.55h32.25l1-6.15,1.8,6.15h16.5l4.65-8.85-1.65,8.85h47.1l2.7-14.7-5.7-3.6,7.35-33.89,7.2-2.71,2.4-15.14h-44.55l-14,23.54-6.9-23.54h-35Zm7.2-14.84h29l8.7,29.54,17.55-29.54h38.1l-1.95,10.65L1067.89,23l-8.55,37.64,5.7,3.15-2.1,10.8h-38.85l1.8-11.1,5.7-2.7,5.85-27-23.7,40.8h-10.5l-9.3-30.45-3.75,16.8,6.15,2.4-2.7,11.25H969.19l2.4-11.25,6.3-2.4,9-33.6L980,22.83Zm11.1,45.74,1.35,4.5-2.1-.9Zm36-3.15-2.25,6.6-2.7,1.35Z" transform="translate(-2 -3.78)"/><path class="cls-1" d="M1114.24,4.83h48l11.55,17.85,5,38.24,5.39,6.15-4.34,24.75h-84.9l-11.55-12.45,5-19.5,11.85-4.65,13.95-26.55-6.3-4.79Zm3.15,2.7L1112.14,23l5.85,4-15.75,30.9-10.65,4-3.75,15.45h81.45l3-15.9-6.3-3.6-6-50.54Zm39.6,2.55,5.4,49.64,5.4,3.3-2.1,11.25h-40.8l2.25-10.35,7.8-2.85-.6-7.65h-13.95l-3.45,7.5,6.45,2.85-2.55,10.5h-28.5l2.55-10.35,10.2-3.75L1122,26l-6-4.21s4.2-11.54,4.2-11.69Zm-26.55,46,.45,3.3-5.1,1.95-4-1.95,1.5-3.3Zm.6-26.85-7,15.15h9.6V29.27Zm-.9,12.15h-1.5l1.95-4.35Z" transform="translate(-2 -3.78)"/><path class="cls-1" d="M1271,50.72h-12.6l10.35,12.6c-1.5,7.5-8.4,30.75-38.25,30.75-16.8,0-47.85-13.35-47.85-47.4,0-30.14,22.5-42.14,39.6-42.14,10,0,16,3.15,19.8,5.7l5.1-5.55h20.55s10,16.5,10,16.94S1271,50.72,1271,50.72ZM1248.64,6.93l-6,7.2c-.6,0-7.5-7.5-21-7.5-16.35,0-36.3,12.75-36.3,40,0,29.55,23.7,34.35,33,34.35,23.25,0,35.85-14.25,37.5-30.45H1230c-.6,2.4-3.15,13.35-8.55,13.35-3.3,0-5.55-5.1-5.55-11.7,0-11.55,5.4-28.34,13.5-28.34,3.15,0,5,2.1,5,5.84a40.09,40.09,0,0,1-1.35,8l26.4-.15L1266,6.93Zm13.65,2.7-5.55,25c0,.15-19.8.15-19.8.15a29.06,29.06,0,0,0,.45-5.4c0-4.34-2.25-8.54-7.35-8.54-10.65,0-17.4,17.69-17.4,30.29,0,8.55,2.25,15.6,8.1,15.6,7.8,0,11.1-10.8,11.7-13.65h19.65c-.9,10.5-11.25,25.05-33.15,25.05-12,0-30.6-6.3-30.6-32.25,0-24.15,18.3-36.74,33.15-36.74a26.7,26.7,0,0,1,21.3,9.6l7.65-9.15Z" transform="translate(-2 -3.78)"/><path class="cls-1" d="M1289.29,4.83h90.44l8,15.15-3.9,16.34-7.2,2-5.85,22.8,6.15,5.25-4.2,25.5h-88.49l-12.3-12.45,5.4-20.25,7.8-3.3,6.45-27.44-7-4.05Zm-.9,18L1295,26l-7.65,32.39-7.2,3-4.35,16.05h86.09l3.6-15.75-5.55-3.15,7.2-32.54,7.5-2.86,2.55-15.59H1292Zm6.3-13.2H1332l-2.55,10.95-5.1,2.54-2.85,12.6h12.6l2.7-12.45-4-2.69L1335,9.63h38.55l-1.65,10.95-7.35,2.84-8.4,37.05,5,2.7-2.4,11.25h-37l2.1-10.5,5-3,3-13.65h-12.15l-3.45,13.8,4.2,2.55-2.4,10.8H1280l2.85-11,7.35-3,8.39-36.74-6.44-3.15Zm27.59,40.49h5.4l-2,8.85-3.15,1.5-2.4-1.65Zm5-24.29,3.15-1.81,2.1,1.65-1.5,6.6h-5.25Z" transform="translate(-2 -3.78)"/><path class="cls-1" d="M1470.33,4.68l8.25,16.05c0-.3-5.85,27.74-5.85,27.74h-10.65l7.8,14.25-5.1,29.1h-69.9L1382,79.67l5.55-20.7,8.1-3.45,6.3-27.14-7-4.21,4.65-19.49Zm-71.55,17.84,6.6,3.46-7.5,32.24-7.35,3.15-4.2,16.05h67.2l5.25-27.6h-15.9l2.25-16H1461l5.1-26.54h-63.75Zm63.75-12.89-4,21.14H1445l-.9-12.44h-11.7l-2.55,15.44h12l-2.55,15.75h-12l-2.85,16h12.15l5.7-12.45h12.6l-4.35,21.3h-59.85l2.55-10.65,7.5-3.15L1409,23.73l-6.3-3.3,2.4-10.8Zm-32.25,43.49h9l-4.8,9.45h-6.15Zm10.8-31.94.75,9.59h-8.25l1.5-9.59Z" transform="translate(-2 -3.78)"/><path class="cls-1" d="M1545.93,4.83c12.3,0,16.2,7.2,18.15,11l.3.6c3,5.55,8.25,16.94,8.25,20.54A15.19,15.19,0,0,1,1563,51a10,10,0,0,1,1.8,5.85,16.35,16.35,0,0,1-.15,2.55l8.7,5.7L1569,91.82h-84.45l-10.95-12.45,4.2-20,7.8-3.15,4.8-25.65-6.45-4.5,3.75-21.29Zm-58,19.34,6.3,3.9-5.7,30.75-7.5,2.85-3.15,15.75h81l2.7-14.85-8.25-3.75a27.73,27.73,0,0,0,.15-3.45c0-4.5-1-8.55-3.75-11.4,10.2-3.45,12.3-11.25,12.3-18.59,0-9.9-5.85-18-17.7-18H1491ZM1494,9.78h48.9c9,0,15,6,15,15.3,0,12.74-8.7,16.49-14.55,17.24,4.5,3.3,5.85,8.4,5.85,13.8,0,1.5-.15,3-.3,4.5l8,3.6-2,9.9h-32.55c2.25-14.25,2.85-18.15,2.85-18.75,0-.45-.15-5.55-8.1-5.55h-1.05l-2.25,11.4,6.3,2.1-1.8,10.8h-36l2-10.2,7.2-2.7,6.3-35.1-6.3-3.74Zm23.4,26.69a31.31,31.31,0,0,0,3.45.3c6.15,0,10-4.05,10-10.65a5.84,5.84,0,0,0-6-6.14h-4.5Zm1,16.8a1.12,1.12,0,0,1,.75-.15,2.61,2.61,0,0,1,2.55,1.8l-.9,4.95-3.3-1.2Zm5.1-29.85h.75c2,0,2.55,2,2.55,3.75,0,3.9-2.4,6.3-4.5,6.3-.75,0-.75-.15-.75-.15Z" transform="translate(-2 -3.78)"/></svg>